PathFileType	4	(X/Y/Z)	Kaydara	
DataRate	CameraRate	NumFrames	NumMarkers	Units	OrigDataRate	OrigDataStartFrame	OrigNumFrames	
60.00	60.00	4	74	mm	60.00	944	121	
Frame#	Time	Z_lasi			Z_rasi			Z_rpsi			Z_lpsi			Z_fneck			Z_bneck			Z_fhead			Z_rhead			Z_lhead			Z_rshld			Z_relbtop			Z_relbext			Z_relblow			Z_rwrext			Z_rwrtop			Z_rwrlow			Z_lshld			Z_lelbext			Z_lelblow			Z_lelbtop			Z_lwrext			Z_lwrtop			Z_lwrlow			Z_rtopleg			Z_ltopleg			Z_rkneefr			Z_rkneebk			Z_rkneeis			Z_lkneefr			Z_lknssbk			Z_lkneeis			Z_rankfr			Z_rankis			Z_rankbk			Z_lankfr			Z_lankbk			Z_lankis			A_lasi			A_rasi			A_rpsi			A_lpsi			A_fneck			A_bneck			A_fhead			A_rhead			A_lhead			A_rshld			A_relbtop			A_relbext			A_relblow			A_rwrext			A_rwrtop			A_rwrlow			A_lshld			A_lelbext			A_lelblow			A_lelbtop			A_lwrext			A_lwrtop			A_lwrlow			A_rtopleg			A_ltopleg			A_rkneefr			A_rkneebk			A_rkneeis			A_lkneefr			A_lknssbk			A_lkneeis			A_rankfr			A_rankis			A_rankbk			A_lankfr			A_lankbk			A_lankis			
		X1	Y1	Z1	X2	Y2	Z2	X3	Y3	Z3	X4	Y4	Z4	X5	Y5	Z5	X6	Y6	Z6	X7	Y7	Z7	X8	Y8	Z8	X9	Y9	Z9	X10	Y10	Z10	X11	Y11	Z11	X12	Y12	Z12	X13	Y13	Z13	X14	Y14	Z14	X15	Y15	Z15	X16	Y16	Z16	X17	Y17	Z17	X18	Y18	Z18	X19	Y19	Z19	X20	Y20	Z20	X21	Y21	Z21	X22	Y22	Z22	X23	Y23	Z23	X24	Y24	Z24	X25	Y25	Z25	X26	Y26	Z26	X27	Y27	Z27	X28	Y28	Z28	X29	Y29	Z29	X30	Y30	Z30	X31	Y31	Z31	X32	Y32	Z32	X33	Y33	Z33	X34	Y34	Z34	X35	Y35	Z35	X36	Y36	Z36	X37	Y37	Z37	X38	Y38	Z38	X39	Y39	Z39	X40	Y40	Z40	X41	Y41	Z41	X42	Y42	Z42	X43	Y43	Z43	X44	Y44	Z44	X45	Y45	Z45	X46	Y46	Z46	X47	Y47	Z47	X48	Y48	Z48	X49	Y49	Z49	X50	Y50	Z50	X51	Y51	Z51	X52	Y52	Z52	X53	Y53	Z53	X54	Y54	Z54	X55	Y55	Z55	X56	Y56	Z56	X57	Y57	Z57	X58	Y58	Z58	X59	Y59	Z59	X60	Y60	Z60	X61	Y61	Z61	X62	Y62	Z62	X63	Y63	Z63	X64	Y64	Z64	X65	Y65	Z65	X66	Y66	Z66	X67	Y67	Z67	X68	Y68	Z68	X69	Y69	Z69	X70	Y70	Z70	X71	Y71	Z71	X72	Y72	Z72	X73	Y73	Z73	X74	Y74	Z74	

16	15.717	-163.46516	1046.61148	696.60309	-220.79149	1032.97928	487.24323	-63.91947	1121.80954	403.03474	11.59789	1132.13417	642.14485	-420.84724	1318.58765	580.57240	-342.25594	1411.33087	600.81013	-494.32629	1253.74084	489.11861	-492.34531	1421.61560	501.55701	-502.65781	1348.98468	630.83851	-278.67916	1397.20703	396.26682	-98.04568	1260.23315	170.46850	-52.84079	1240.59952	214.90686	-152.93103	1227.17209	231.33579	-159.73424	1017.05956	254.74369	-161.35889	1037.36649	296.01902	-117.67099	1028.69041	307.36652	-356.19209	1326.42303	755.19424	-238.50729	1035.79880	667.55524	-325.04936	1044.48257	639.27132	-301.39587	1017.63687	698.76732	-274.47186	882.16476	453.00022	-294.93088	839.48502	464.81598	-259.01325	827.22343	493.60493	-94.84831	922.34879	365.93010	-38.66243	896.33118	727.77763	-200.30787	427.36862	406.30974	-126.42899	449.75147	357.44583	-134.57802	427.25742	478.92109	-136.91134	453.94005	696.26465	-30.41862	468.34957	672.67616	-136.01677	448.59581	602.15229	-188.09568	183.96404	376.71024	-166.14258	175.06065	439.04396	-113.71288	167.32044	370.18375	-105.40552	164.04425	683.12820	-55.05955	161.66508	619.81361	-133.88148	177.85244	617.77092	-977.44499	1034.48196	473.33141	-966.91055	1040.43358	632.27623	-1126.52603	1032.97562	651.84586	-1101.71249	1039.01657	469.52930	-1061.22147	1374.89471	569.05712	-1192.93777	1422.26929	567.26368	-977.25021	1562.81494	567.11113	-1117.72171	1564.65729	666.14609	-1134.24332	1566.11740	503.57922	-1123.20045	1352.27448	746.16821	-963.81271	1118.83499	738.89023	-1000.26360	1070.43884	715.49500	-961.49658	1128.03665	682.76833	-737.37259	1075.72243	661.16501	-737.04399	1088.09837	705.30548	-744.90936	1125.18089	691.68602	-1098.28896	1353.16254	392.87697	-1105.77637	1040.51270	369.71958	-1038.58665	1053.85254	393.52974	-1063.48648	1050.21591	345.26814	-995.44830	832.24014	384.42825	-998.59299	831.22772	343.11798	-955.74150	844.05655	353.11119	-1065.83092	875.62454	732.12967	-1030.24826	889.64188	395.34382	-1024.29214	451.87195	640.74593	-1132.26395	486.90674	685.20576	-1111.39366	486.41922	566.98448	-1008.84720	464.00612	509.21349	-1093.95958	480.25455	413.53615	-1116.37695	479.81766	537.82055	-1098.45497	166.10523	663.15277	-1131.36520	163.07848	597.19643	-1179.91043	154.77201	666.15410	-1066.74782	166.08606	457.06421	-1127.80167	168.34183	421.57543	-1126.11855	173.49575	510.97725 
17	15.733	-164.43008	1048.69125	697.06589	-223.06124	1035.54832	487.63149	-64.60822	1121.44218	402.93221	11.64370	1131.25031	641.82831	-415.41714	1324.01108	580.69809	-336.82587	1416.75446	600.93582	-492.01927	1260.97961	490.73044	-487.43286	1428.92029	502.36057	-497.99126	1357.05017	632.09351	-273.96276	1402.08221	396.40770	-93.03520	1269.38492	168.12088	-49.10621	1248.04146	213.15277	-150.04464	1237.54181	228.19637	-163.34177	1028.87978	253.93202	-165.86365	1050.04410	294.71331	-122.89228	1040.77431	307.50772	-350.98877	1332.09839	755.99274	-237.00377	1039.84657	669.05479	-324.11510	1048.64548	643.97095	-298.56245	1022.26364	702.72995	-280.42135	885.61920	457.33772	-299.87497	842.60193	470.03239	-262.62320	830.90530	497.30511	-98.01113	922.35367	366.82491	-41.03731	896.51459	728.36502	-202.91264	427.29359	406.34617	-128.86530	449.99481	357.91496	-137.65195	427.33341	479.25053	-139.59141	453.96645	697.13333	-33.12706	468.72795	673.33054	-138.79520	448.58067	603.07167	-188.96629	183.82698	376.78608	-166.96840	174.99254	439.05861	-114.38297	167.65556	370.36732	-106.58372	164.16569	683.42827	-55.80296	162.08920	619.99920	-134.70988	177.83806	617.83642	-977.32796	1034.47357	473.31917	-967.02827	1040.38429	632.45411	-1126.49094	1032.90909	651.76384	-1101.56815	1038.96942	469.46869	-1061.33026	1374.73923	569.02657	-1192.92290	1422.44232	567.15229	-976.83517	1562.40417	567.75448	-1117.58446	1564.31778	666.52901	-1133.76785	1566.37482	503.97343	-1123.51440	1352.10419	746.14433	-964.06288	1118.68507	738.94981	-1000.38803	1070.27466	715.39574	-961.71989	1127.90718	682.80952	-737.71584	1075.58708	661.55426	-737.41104	1087.89772	705.60219	-745.13222	1125.05669	691.95114	-1098.30605	1353.08243	392.83455	-1105.66956	1040.42824	369.60598	-1038.50693	1053.82713	393.47324	-1063.39828	1050.15869	345.21637	-995.29015	832.15897	384.43790	-998.41461	831.20354	343.08083	-955.56450	844.06013	353.06625	-1065.75821	875.64575	732.11922	-1030.08316	889.66408	395.33581	-1024.20891	451.86489	640.72014	-1132.23457	486.94965	685.18394	-1111.29753	486.43490	566.97437	-1008.76152	463.96164	509.23382	-1093.83781	480.26108	413.52661	-1116.26938	479.84917	537.77542	-1098.44505	166.11361	663.18352	-1131.29982	163.09757	597.17770	-1179.91547	154.78046	666.13060	-1066.69563	166.09144	457.05936	-1127.76558	168.34175	421.57108	-1126.10985	173.51896	510.97790 
18	15.750	-165.65996	1050.86617	697.53029	-225.09079	1038.83301	488.17783	-65.47991	1121.05637	402.83936	11.45381	1130.15579	641.37474	-409.31820	1330.20752	581.01089	-330.72693	1422.95074	601.24863	-489.59854	1269.96803	492.71957	-481.83735	1437.83340	503.65921	-492.71969	1366.58768	633.72036	-268.73560	1407.50076	396.49166	-87.03837	1278.45367	166.37671	-44.23725	1254.92355	211.53326	-146.42690	1248.22388	225.32751	-167.40108	1040.86411	253.24787	-171.29980	1063.35335	293.32596	-129.56136	1053.53058	308.35777	-344.97696	1338.63556	757.21031	-235.92239	1044.08134	669.89326	-323.24459	1053.17398	649.26598	-295.64913	1027.41905	707.71339	-286.24073	889.05510	462.49920	-305.28894	846.62346	476.22360	-267.08399	835.14435	502.17892	-101.71883	922.32689	367.61623	-43.54933	896.67770	728.89191	-205.77120	427.11170	406.66100	-131.80037	450.25291	358.37769	-140.75622	427.50065	479.73206	-142.51209	454.03702	698.04977	-36.27795	468.98685	674.01428	-141.85689	448.58734	603.99235	-189.94831	183.60157	376.98666	-168.17036	175.08446	439.43363	-115.21108	168.11789	370.58334	-107.56376	164.18066	683.56323	-56.81065	162.51936	620.27058	-135.83209	177.74452	617.92465	-977.23740	1034.46449	473.32554	-967.06657	1040.35583	632.52506	-1126.43471	1032.83142	651.71082	-1101.43707	1038.90488	469.41242	-1061.43219	1374.61014	569.00406	-1192.90245	1422.52319	567.09229	-976.58623	1562.09091	568.34156	-1117.51175	1563.96820	666.88324	-1133.34930	1566.60553	504.25583	-1123.80928	1351.97998	746.12244	-964.26903	1118.53722	739.07753	-1000.65323	1070.16418	715.35576	-961.97639	1127.76802	682.88361	-737.95097	1075.42191	661.87485	-737.64206	1087.71523	705.87326	-745.34111	1124.92378	692.23053	-1098.30009	1353.05206	392.81788	-1105.59143	1040.36591	369.51500	-1038.44505	1053.77510	393.41927	-1063.30238	1050.12466	345.15079	-995.18539	832.05780	384.41647	-998.26309	831.19247	343.03154	-955.44754	844.02351	353.07838	-1065.66475	875.63309	732.09106	-1029.97154	889.66927	395.30773	-1024.15680	451.85707	640.75508	-1132.14546	486.97338	685.13992	-1111.18820	486.45462	566.95869	-1008.68469	463.96950	509.23851	-1093.73474	480.25963	413.50338	-1116.17844	479.85764	537.77287	-1098.40958	166.13504	663.17924	-1131.26770	163.11708	597.16789	-1179.87526	154.80718	666.10260	-1066.66367	166.07496	457.06871	-1127.72446	168.37023	421.55045	-1126.07285	173.52468	510.99209 
19	15.767	-166.91427	1053.05153	697.76802	-227.00809	1042.14943	488.84560	-66.52653	1120.49477	402.79034	10.99880	1128.91525	640.91141	-402.39330	1337.05124	581.49223	-323.80203	1429.79462	601.72997	-487.39922	1280.77026	495.10223	-475.30487	1448.37387	505.35042	-486.82991	1377.72034	635.72765	-262.64828	1413.32870	396.22185	-80.26384	1286.67007	165.57373	-39.78927	1260.50949	211.15799	-142.18493	1258.52859	222.98792	-171.89302	1052.79587	252.67231	-177.78595	1076.50040	291.49158	-137.32964	1066.88560	309.40536	-338.05271	1345.81146	758.51257	-234.36182	1048.39195	672.96036	-321.76502	1058.36792	655.92453	-292.68000	1033.24730	713.59596	-292.52634	893.35732	468.67973	-311.28820	851.30615	483.49297	-272.50996	839.78409	508.14659	-105.49203	922.18414	368.16906	-46.37641	896.77826	729.31839	-208.95212	426.96831	407.18292	-135.07101	450.50388	358.89729	-143.77714	427.69669	480.31387	-145.64146	454.00101	698.96835	-39.83520	469.09149	674.71954	-145.32146	448.47633	604.98516	-191.12324	183.42260	377.42348	-169.11047	175.06544	439.70600	-116.33276	168.52085	370.89218	-108.91826	164.19252	683.73772	-57.70085	163.02675	620.25688	-136.85290	177.59668	617.96680	-977.12776	1034.45328	473.27309	-967.11411	1040.31967	632.57378	-1126.34705	1032.74307	651.61507	-1101.33278	1038.85117	469.34303	-1061.42899	1374.51477	569.01173	-1192.80350	1422.50122	567.00397	-976.33369	1561.97144	568.83148	-1117.50099	1563.64548	667.20352	-1132.94823	1566.74347	504.50375	-1123.97964	1351.89789	746.09894	-964.49532	1118.33435	739.09172	-1000.95085	1070.02663	715.32883	-962.07268	1127.68478	682.95349	-738.10341	1075.21812	662.23129	-737.89818	1087.54837	706.22238	-745.51682	1124.78378	692.52289	-1098.22250	1353.01773	392.77134	-1105.48935	1040.35423	369.44683	-1038.35022	1053.75389	393.36975	-1063.22128	1050.08812	345.14824	-995.12268	831.99654	384.36790	-998.11310	831.15524	342.99694	-955.32364	844.00146	353.09246	-1065.58289	875.62859	732.07352	-1029.91470	889.67781	395.28091	-1024.14200	451.86394	640.75340	-1132.11838	486.98708	685.13222	-1111.13693	486.44852	566.95793	-1008.62076	463.92509	509.23824	-1093.63708	480.25375	413.54034	-1116.10107	479.85809	537.77626	-1098.40515	166.13554	663.18031	-1131.19286	163.11865	597.16900	-1179.86374	154.82246	666.08994	-1066.62827	166.08627	457.05677	-1127.70203	168.37036	421.56727	-1126.06323	173.51860	510.98274 
